<?xml version="1.0" standalone="no"?><!DOCTYPE svg PUBLIC "-//W3C//DTD SVG 1.1//EN" "http://www.w3.org/Graphics/SVG/1.1/DTD/svg11.dtd"><svg t="1699685007702" class="icon" viewBox="0 0 1024 1024" version="1.1" xmlns="http://www.w3.org/2000/svg" p-id="10503" xmlns:xlink="http://www.w3.org/1999/xlink" width="200" height="200"><path d="M896 128H128c-46.933333 0-85.333333 38.4-85.333333 85.333333v597.333334c0 46.933333 38.4 85.333333 85.333333 85.333333h768c46.933333 0 85.333333-38.4 85.333333-85.333333V213.333333c0-46.933333-38.4-85.333333-85.333333-85.333333z m-42.666667 682.666667H170.666667c-23.466667 0-42.666667-19.2-42.666667-42.666667V256c0-23.466667 19.2-42.666667 42.666667-42.666667h682.666666c23.466667 0 42.666667 19.2 42.666667 42.666667v512c0 23.466667-19.2 42.666667-42.666667 42.666667zM343.466667 663.04A127.786667 127.786667 0 0 1 469.333333 512c14.933333 0 29.44 2.986667 42.666667 7.68V341.333333c0-46.933333 38.4-85.333333 85.333333-85.333333h85.333334c23.466667 0 42.666667 19.2 42.666666 42.666667s-19.2 42.666667-42.666666 42.666666h-85.333334v299.946667a128.042667 128.042667 0 0 1-151.466666 124.586667c-51.626667-8.96-93.866667-51.2-102.4-102.826667z" p-id="10504" fill="#707070"></path></svg>