<?xml version="1.0" standalone="no"?><!DOCTYPE svg PUBLIC "-//W3C//DTD SVG 1.1//EN" "http://www.w3.org/Graphics/SVG/1.1/DTD/svg11.dtd"><svg t="1699532265127" class="icon" viewBox="0 0 1024 1024" version="1.1" xmlns="http://www.w3.org/2000/svg" p-id="1216" xmlns:xlink="http://www.w3.org/1999/xlink" width="200" height="200"><path d="M882.73863641 113.13636387a25.56818179 25.56818179 0 0 1 25.5681818 25.56818178v746.53977283a25.56818179 25.56818179 0 0 1-40.06534104 21.06818125L325.30113613 532.83806821a25.56818179 25.56818179 0 0 1 0-42.13636332l542.96590898-373.03977337A25.56818179 25.56818179 0 0 1 882.73863641 113.13636387zM192.39772717 166.82954538a25.56818179 25.56818179 0 0 1 25.5681818 25.56818179v639.20454566a25.56818179 25.56818179 0 0 1-25.5681818 25.56818179H141.26136359a25.56818179 25.56818179 0 0 1-25.5681818-25.56818179V192.39772717a25.56818179 25.56818179 0 0 1 25.56818179-25.56818179z" p-id="1217" fill="#707070"></path></svg>