<?xml version="1.0" standalone="no"?><!DOCTYPE svg PUBLIC "-//W3C//DTD SVG 1.1//EN" "http://www.w3.org/Graphics/SVG/1.1/DTD/svg11.dtd"><svg t="1699532485723" class="icon" viewBox="0 0 1024 1024" version="1.1" xmlns="http://www.w3.org/2000/svg" p-id="2378" xmlns:xlink="http://www.w3.org/1999/xlink" width="200" height="200"><path d="M949.418667 502.369524v64.024381c-10.800762 120.539429-82.115048 223.646476-183.344762 278.723047L732.330667 780.190476A280.30781 280.30781 0 0 0 877.714286 534.381714a280.380952 280.380952 0 0 0-153.941334-250.319238l33.694477-64.926476c105.764571 53.808762 180.833524 159.305143 191.951238 283.233524z m-145.627429 24.576a218.819048 218.819048 0 0 1-105.618286 187.66019l-33.889523-65.097143a145.700571 145.700571 0 0 0 66.364952-122.563047 145.700571 145.700571 0 0 0-68.583619-124.001524l33.792-65.048381a218.819048 218.819048 0 0 1 107.934476 189.049905zM611.547429 205.04381V829.19619c0 49.859048-61.561905 74.044952-96.060953 37.741715l-160.353524-146.383238H159.305143a73.142857 73.142857 0 0 1-73.142857-73.142857V403.407238a73.142857 73.142857 0 0 1 68.827428-73.020952l4.924953-0.121905 197.680762 3.291429 157.915428-166.229334c34.474667-36.327619 96.060952-12.117333 96.060953 37.741714z" p-id="2379" fill="#707070"></path></svg>